<svg width="500pt" height="606pt" viewBox="0 0 500 606" xmlns="http://www.w3.org/2000/svg">
<path fill="#fffefe" d="M0 0h394.38c-19.7 20.08-38.78 40.78-58.27 61.07-1.66 1.74-3.65 3.43-4.06 5.94-3 11.73-6.05 23.45-9.09 35.17-1.25 4.52-1.79 9.42-4.78 13.22-42.27-11.95-87.7-12.53-130.25-1.63-46.39 11.82-89.09 37.46-121.51 72.68-31.85 34.3-53.78 77.74-62.24 123.79C1.8 322.6.69 335.15 0 347.71V0z"/>
<path fill="#ee5758" d="M394.38 0h1.35c4.75 2.77 9.95 5.87 12.03 11.26.9 1.61-.6 2.82-1.53 3.93-17.88 18.79-35.65 37.69-53.52 56.5-1.3 1.23-2 2.89-2.38 4.61-2.69 11.25-5.52 22.47-8.28 33.71-.63 4.23-.65 8.56-1.81 12.72 48.71 19.01 91.19 53.52 119.58 97.44 24.8 37.92 38.65 82.72 40.18 127.97v16.17c-1.46 38.01-11.33 75.73-29.39 109.26-17.18 32.16-41.51 60.47-70.66 82.37-41.09 31.1-92.02 48.77-143.52 50.06h-13.8c-40.8-1.32-81.28-12.54-116.66-32.97-46.76-26.72-84.49-68.9-105.71-118.41C7.83 426 1.18 395.02 0 363.88v-16.17c.69-12.56 1.8-25.11 4.18-37.47 8.46-46.05 30.39-89.49 62.24-123.79 32.42-35.22 75.12-60.86 121.51-72.68 42.55-10.9 87.98-10.32 130.25 1.63 2.99-3.8 3.53-8.7 4.78-13.22 3.04-11.72 6.09-23.44 9.09-35.17.41-2.51 2.4-4.2 4.06-5.94C355.6 40.78 374.68 20.08 394.38 0z"/>
<path fill="#fffefe" d="M395.73 0H500v348.14c-1.53-45.25-15.38-90.05-40.18-127.97-28.39-43.92-70.87-78.43-119.58-97.44 1.16-4.16 1.18-8.49 1.81-12.72 2.76-11.24 5.59-22.46 8.28-33.71.38-1.72 1.08-3.38 2.38-4.61 17.87-18.81 35.64-37.71 53.52-56.5.93-1.11 2.43-2.32 1.53-3.93-2.08-5.39-7.28-8.49-12.03-11.26zM155.91 151.88c36.63-17.01 77.94-23.67 118.08-19.34 47.29 4.87 92.73 25.49 127.68 57.68-7.7-.66-15.58 1.16-22.09 5.36-12.43 7.82-19.56 22.88-18.34 37.45 1 16.38 10.24 30.54 18.53 44.15 11.73 18.37 20.79 39.11 21.75 61.15 1.33 20.67-5.28 40.65-11.07 60.2-9.8 31.08-18.7 62.43-28.34 93.55-26.88-80.52-54.07-160.95-81.09-241.43 9.17-.66 18.38-1.08 27.47-2.5 7.03-1.62 8.9-11.72 3.48-16.16-4.53-3.77-10.71-1.2-15.97-1.42-28.27 2.11-56.67 2.97-84.97.99-8.71-.53-17.41-1.15-26.12-1.65-7 .05-10.87 8.93-7.29 14.55 1.37 2.26 3.83 3.79 6.48 3.94 8.02 1.02 16.08 1.7 24.15 2.22 11.73 32.02 23.44 64.05 35.06 96.11-16.52 49.07-32.84 98.22-49.18 147.35-27.23-81.16-54.49-162.31-81.84-243.43 8.87-.6 17.76-1.11 26.57-2.32 4.84-.62 8.25-5.59 7.51-10.34-.38-4.61-4.69-8.48-9.36-8.08-24.89 1.67-49.84 3.52-74.8 2.54 23.08-34.76 55.73-63.17 93.7-80.57zM312.07 132.93c.7-.79 1.41-1.57 2.12-2.35 1.42 1.08 2.81 2.41 4.68 2.59 4.75.69 9.63.67 14.39.01 1.8-.2 3.28-1.27 4.58-2.46l2.14 1.62c-.49 1.41-1.61 2.31-3.04 2.65-7.72 2.37-16.05 1.75-23.75-.34l-1.12-1.72zM447.36 248.46c18.75 34.27 28.25 73.51 27.3 112.56-.79 41.73-13.64 83.14-36.61 117.99-19.02 29.1-44.92 53.6-74.91 71.16 21.03-61.27 42.33-122.45 63.46-183.68 5.57-16.85 12.75-33.18 16.68-50.54 5.45-22.01 6.86-44.99 4.08-67.49zM30.16 402.84c-9.81-46.07-4.84-95.28 14.61-138.22 35.51 97.91 71.48 195.65 107 293.56-32.65-15.91-61.36-39.81-82.85-69.09-18.85-25.56-32.21-55.17-38.76-86.25zM0 363.88c1.18 31.14 7.83 62.12 20.26 90.74 21.22 49.51 58.95 91.69 105.71 118.41 35.38 20.43 75.86 31.65 116.66 32.97H0V363.88zM470.61 473.57c18.06-33.53 27.93-71.25 29.39-109.26V606H256.43c51.5-1.29 102.43-18.96 143.52-50.06 29.15-21.9 53.48-50.21 70.66-82.37zM253.95 375.72c21.92 60.17 43.91 120.32 65.86 180.48 1.48 3.99 2.76 8.07 4.69 11.88-44.14 15.47-93.18 16.95-138 3.41 22.62-65.21 44.96-130.52 67.45-195.77z"/>
</svg>
