<svg id="Capa_1" xmlns="http://www.w3.org/2000/svg" width="16" height="16" viewBox="0 0 16 16"><path d="M8 0C3.582 0 0 3.582 0 8s3.582 8 8 8 8-3.582 8-8c0-4.42-3.582-8-8-8zm3.98 6.204l.006.255c0 2.602-1.98 5.602-5.604 5.602-1.112 0-2.147-.326-3.02-.885.155.018.312.028.47.028.924 0 1.773-.315 2.447-.843-.864-.016-1.59-.586-1.84-1.368.12.023.24.034.37.034.18 0 .353-.024.52-.07-.903-.18-1.58-.976-1.58-1.93v-.025c.264.148.567.236.89.247-.528-.353-.876-.956-.876-1.64 0-.36.097-.698.266-.99.972 1.193 2.424 1.977 4.06 2.06-.033-.145-.05-.296-.05-.45 0-1.087.882-1.97 1.97-1.97.566 0 1.078.24 1.438.623.448-.09.87-.253 1.25-.478-.146.46-.458.846-.865 1.09.397-.047.778-.154 1.13-.31-.263.394-.598.74-.983 1.017z"/></svg>