<svg id="Capa_1" xmlns="http://www.w3.org/2000/svg" width="16" height="16" viewBox="0 0 16 16"><path d="M8 0C3.582 0 0 3.582 0 8s3.582 8 8 8 8-3.582 8-8c0-4.42-3.582-8-8-8zm3.98 6.204l.006.255c0 2.6-1.98 5.6-5.604 5.6-1.112 0-2.147-.327-3.02-.886.155.018.312.028.47.028.924 0 1.773-.315 2.447-.843-.867-.016-1.59-.586-1.84-1.368.12.023.24.034.37.034.18 0 .35-.024.52-.07-.906-.18-1.58-.976-1.58-1.93V7c.26.15.564.237.89.248-.53-.355-.88-.958-.88-1.64 0-.36.098-.7.267-.99C5 5.81 6.452 6.594 8.09 6.68c-.034-.146-.05-.297-.05-.45 0-1.088.88-1.97 1.97-1.97.565 0 1.077.24 1.437.622.448-.09.87-.253 1.25-.478-.146.46-.458.846-.865 1.09.397-.047.778-.154 1.13-.31-.263.394-.598.74-.983 1.017z"/></svg>